# This file is brought to you by Roblox Corporation
# Generated by Roblox Studio

mtllib Coaster.mtl

g Part1

v 15.2 2060.3 -20.4 
v 15.2 2060.3 -14.3 
v 15.2 2059.8 -20.4 
v 15.2 2059.8 -14.3 
v 7.8 2060.3 -14.3 
v 15.2 2060.3 -14.3 
v 7.8 2060.3 -20.4 
v 15.2 2060.3 -20.4 
v 15.2 2060.3 -14.3 
v 7.8 2060.3 -14.3 
v 15.2 2059.8 -14.3 
v 7.8 2059.8 -14.3 
v 7.8 2060.3 -14.3 
v 7.8 2060.3 -20.4 
v 7.8 2059.8 -14.3 
v 7.8 2059.8 -20.4 
v 7.8 2059.8 -20.4 
v 15.2 2059.8 -20.4 
v 7.8 2059.8 -14.3 
v 15.2 2059.8 -14.3 
v 7.8 2060.3 -20.4 
v 15.2 2060.3 -20.4 
v 7.8 2059.8 -20.4 
v 15.2 2059.8 -20.4 

vn 1 0 0 
vn 1 0 0 
vn 1 0 0 
vn 1 0 0 
vn 0 1 0 
vn 0 1 0 
vn 0 1 0 
vn 0 1 0 
vn 0 0 1 
vn 0 0 1 
vn 0 0 1 
vn 0 0 1 
vn -1 0 0 
vn -1 0 0 
vn -1 0 0 
vn -1 0 0 
vn 0 -1 0 
vn 0 -1 0 
vn 0 -1 0 
vn 0 -1 0 
vn 0 0 -1 
vn 0 0 -1 
vn 0 0 -1 
vn 0 0 -1 

vt 3.7625 -3.5 
vt 3 -3.5 
vt 3.7625 -3.5625 
vt 3 -3.5625 
vt 3.925 -3.5 
vt 3 -3.5 
vt 3.925 -4.2625 
vt 3 -4.2625 
vt 3.925 -3.5 
vt 3 -3.5 
vt 3.925 -3.5625 
vt 3 -3.5625 
vt 3.7625 -3.5 
vt 3 -3.5 
vt 3.7625 -3.5625 
vt 3 -3.5625 
vt 3.925 -3.5 
vt 3 -3.5 
vt 3.925 -4.2625 
vt 3 -4.2625 
vt 3.925 -3.5 
vt 3 -3.5 
vt 3.925 -3.5625 
vt 3 -3.5625 

usemtl Part1Mtl

f 1/1/1 2/2/2 3/3/3 
f 3/3/3 2/2/2 4/4/4 
f 5/5/5 6/6/6 7/7/7 
f 7/7/7 6/6/6 8/8/8 
f 9/9/9 10/10/10 11/11/11 
f 11/11/11 10/10/10 12/12/12 
f 13/13/13 14/14/14 15/15/15 
f 15/15/15 14/14/14 16/16/16 
f 17/17/17 18/18/18 19/19/19 
f 19/19/19 18/18/18 20/20/20 
f 21/21/21 22/22/22 23/23/23 
f 23/23/23 22/22/22 24/24/24 

g Part2

v 15.2 2060.3 -13.5 
v 15.2 2060.3 -4.09997 
v 15.2 2059.8 -13.5 
v 15.2 2059.8 -4.09997 
v 7.8 2060.3 -4.09997 
v 15.2 2060.3 -4.09997 
v 7.8 2060.3 -13.5 
v 15.2 2060.3 -13.5 
v 15.2 2060.3 -4.09997 
v 7.8 2060.3 -4.09997 
v 15.2 2059.8 -4.09997 
v 7.8 2059.8 -4.09997 
v 7.8 2060.3 -4.09997 
v 7.8 2060.3 -13.5 
v 7.8 2059.8 -4.09997 
v 7.8 2059.8 -13.5 
v 7.8 2059.8 -13.5 
v 15.2 2059.8 -13.5 
v 7.8 2059.8 -4.09997 
v 15.2 2059.8 -4.09997 
v 7.8 2060.3 -13.5 
v 15.2 2060.3 -13.5 
v 7.8 2059.8 -13.5 
v 15.2 2059.8 -13.5 

vn 1 0 0 
vn 1 0 0 
vn 1 0 0 
vn 1 0 0 
vn 0 1 0 
vn 0 1 0 
vn 0 1 0 
vn 0 1 0 
vn 0 0 1 
vn 0 0 1 
vn 0 0 1 
vn 0 0 1 
vn -1 0 0 
vn -1 0 0 
vn -1 0 0 
vn -1 0 0 
vn 0 -1 0 
vn 0 -1 0 
vn 0 -1 0 
vn 0 -1 0 
vn 0 0 -1 
vn 0 0 -1 
vn 0 0 -1 
vn 0 0 -1 

vt 8.425 -1.25 
vt 7.25 -1.25 
vt 8.425 -1.3125 
vt 7.25 -1.3125 
vt 8.175 -1.25 
vt 7.25 -1.25 
vt 8.175 -2.425 
vt 7.25 -2.425 
vt 8.175 -1.25 
vt 7.25 -1.25 
vt 8.175 -1.3125 
vt 7.25 -1.3125 
vt 8.425 -1.25 
vt 7.25 -1.25 
vt 8.425 -1.3125 
vt 7.25 -1.3125 
vt 8.175 -1.25 
vt 7.25 -1.25 
vt 8.175 -2.425 
vt 7.25 -2.425 
vt 8.175 -1.25 
vt 7.25 -1.25 
vt 8.175 -1.3125 
vt 7.25 -1.3125 

usemtl Part1Mtl

f 25/25/25 26/26/26 27/27/27 
f 27/27/27 26/26/26 28/28/28 
f 29/29/29 30/30/30 31/31/31 
f 31/31/31 30/30/30 32/32/32 
f 33/33/33 34/34/34 35/35/35 
f 35/35/35 34/34/34 36/36/36 
f 37/37/37 38/38/38 39/39/39 
f 39/39/39 38/38/38 40/40/40 
f 41/41/41 42/42/42 43/43/43 
f 43/43/43 42/42/42 44/44/44 
f 45/45/45 46/46/46 47/47/47 
f 47/47/47 46/46/46 48/48/48 

