# This file is brought to you by Roblox Corporation
# Generated by Roblox Studio

mtllib Sword.mtl

g Part1

v 25.8 0.100001 -176.8 
v 25.8 0.100001 -176.2 
v 25.8 9.05246e-07 -176.8 
v 25.8 9.05246e-07 -176.2 
v 25.2 0.100001 -176.2 
v 25.8 0.100001 -176.2 
v 25.2 0.100001 -176.8 
v 25.8 0.100001 -176.8 
v 25.8 0.100001 -176.2 
v 25.2 0.100001 -176.2 
v 25.8 9.05246e-07 -176.2 
v 25.2 9.05246e-07 -176.2 
v 25.2 0.100001 -176.2 
v 25.2 0.100001 -176.8 
v 25.2 9.05246e-07 -176.2 
v 25.2 9.05246e-07 -176.8 
v 25.2 9.05246e-07 -176.8 
v 25.8 9.05246e-07 -176.8 
v 25.2 9.05246e-07 -176.2 
v 25.8 9.05246e-07 -176.2 
v 25.2 0.100001 -176.8 
v 25.8 0.100001 -176.8 
v 25.2 9.05246e-07 -176.8 
v 25.8 9.05246e-07 -176.8 

vn 1 0 0 
vn 1 0 0 
vn 1 0 0 
vn 1 0 0 
vn 0 1 0 
vn 0 1 0 
vn 0 1 0 
vn 0 1 0 
vn 0 0 1 
vn 0 0 1 
vn 0 0 1 
vn 0 0 1 
vn -1 0 0 
vn -1 0 0 
vn -1 0 0 
vn -1 0 0 
vn 0 -1 0 
vn 0 -1 0 
vn 0 -1 0 
vn 0 -1 0 
vn 0 0 -1 
vn 0 0 -1 
vn 0 0 -1 
vn 0 0 -1 

vt 2.825 -1.75 
vt 2.75 -1.75 
vt 2.825 -1.7625 
vt 2.75 -1.7625 
vt 2.825 -1.75 
vt 2.75 -1.75 
vt 2.825 -1.825 
vt 2.75 -1.825 
vt 2.825 -1.75 
vt 2.75 -1.75 
vt 2.825 -1.7625 
vt 2.75 -1.7625 
vt 2.825 -1.75 
vt 2.75 -1.75 
vt 2.825 -1.7625 
vt 2.75 -1.7625 
vt 2.825 -1.75 
vt 2.75 -1.75 
vt 2.825 -1.825 
vt 2.75 -1.825 
vt 2.825 -1.75 
vt 2.75 -1.75 
vt 2.825 -1.7625 
vt 2.75 -1.7625 

usemtl Part1Mtl

f 1/1/1 2/2/2 3/3/3 
f 3/3/3 2/2/2 4/4/4 
f 5/5/5 6/6/6 7/7/7 
f 7/7/7 6/6/6 8/8/8 
f 9/9/9 10/10/10 11/11/11 
f 11/11/11 10/10/10 12/12/12 
f 13/13/13 14/14/14 15/15/15 
f 15/15/15 14/14/14 16/16/16 
f 17/17/17 18/18/18 19/19/19 
f 19/19/19 18/18/18 20/20/20 
f 21/21/21 22/22/22 23/23/23 
f 23/23/23 22/22/22 24/24/24 

g Part2

v 25.4354 0.100001 -176.485 
v 25.5769 0.100001 -176.344 
v 25.6018 0.100001 -176.374 
v 25.6252 0.100001 -176.422 
v 25.6354 0.100001 -176.485 
v 25.6252 0.100001 -176.549 
v 25.6018 0.100001 -176.596 
v 25.5769 0.100001 -176.627 
v 25.5769 0.100001 -176.627 
v 25.5464 0.100001 -176.652 
v 25.4987 0.100001 -176.675 
v 25.4354 0.100001 -176.685 
v 25.3722 0.100001 -176.675 
v 25.3245 0.100001 -176.652 
v 25.294 0.100001 -176.627 
v 25.294 0.100001 -176.627 
v 25.269 0.100001 -176.596 
v 25.2457 0.100001 -176.549 
v 25.2354 0.100001 -176.485 
v 25.2457 0.100001 -176.422 
v 25.269 0.100001 -176.374 
v 25.294 0.100001 -176.344 
v 25.294 0.100001 -176.344 
v 25.3245 0.100001 -176.319 
v 25.3722 0.100001 -176.296 
v 25.4354 0.100001 -176.285 
v 25.4987 0.100001 -176.296 
v 25.5464 0.100001 -176.319 
v 25.5769 0.100001 -176.344 
v 25.294 2 -176.344 
v 25.294 0.100001 -176.344 
v 25.3245 2 -176.319 
v 25.3245 0.100001 -176.319 
v 25.3722 2 -176.296 
v 25.3722 0.100001 -176.296 
v 25.4354 2 -176.285 
v 25.4354 0.100001 -176.285 
v 25.4987 2 -176.296 
v 25.4987 0.100001 -176.296 
v 25.5464 2 -176.319 
v 25.5464 0.100001 -176.319 
v 25.5769 2 -176.344 
v 25.5769 0.100001 -176.344 
v 25.294 0.100001 -176.344 
v 25.294 2 -176.344 
v 25.269 0.100001 -176.374 
v 25.269 2 -176.374 
v 25.2457 0.100001 -176.422 
v 25.2457 2 -176.422 
v 25.2354 0.100001 -176.485 
v 25.2354 2 -176.485 
v 25.2457 0.100001 -176.549 
v 25.2457 2 -176.549 
v 25.269 0.100001 -176.596 
v 25.269 2 -176.596 
v 25.294 0.100001 -176.627 
v 25.294 2 -176.627 
v 25.4354 2 -176.485 
v 25.294 2 -176.344 
v 25.269 2 -176.374 
v 25.2457 2 -176.422 
v 25.2354 2 -176.485 
v 25.2457 2 -176.549 
v 25.269 2 -176.596 
v 25.294 2 -176.627 
v 25.294 2 -176.627 
v 25.3245 2 -176.652 
v 25.3722 2 -176.675 
v 25.4354 2 -176.685 
v 25.4987 2 -176.675 
v 25.5464 2 -176.652 
v 25.5769 2 -176.627 
v 25.5769 2 -176.627 
v 25.6018 2 -176.596 
v 25.6252 2 -176.549 
v 25.6354 2 -176.485 
v 25.6252 2 -176.422 
v 25.6018 2 -176.374 
v 25.5769 2 -176.344 
v 25.5769 2 -176.344 
v 25.5464 2 -176.319 
v 25.4987 2 -176.296 
v 25.4354 2 -176.285 
v 25.3722 2 -176.296 
v 25.3245 2 -176.319 
v 25.294 2 -176.344 
v 25.5769 2 -176.627 
v 25.5769 0.100001 -176.627 
v 25.5464 2 -176.652 
v 25.5464 0.100001 -176.652 
v 25.4987 2 -176.675 
v 25.4987 0.100001 -176.675 
v 25.4354 2 -176.685 
v 25.4354 0.100001 -176.685 
v 25.3722 2 -176.675 
v 25.3722 0.100001 -176.675 
v 25.3245 2 -176.652 
v 25.3245 0.100001 -176.652 
v 25.294 2 -176.627 
v 25.294 0.100001 -176.627 
v 25.5769 2 -176.344 
v 25.5769 0.100001 -176.344 
v 25.6018 2 -176.374 
v 25.6018 0.100001 -176.374 
v 25.6252 2 -176.422 
v 25.6252 0.100001 -176.422 
v 25.6354 2 -176.485 
v 25.6354 0.100001 -176.485 
v 25.6252 2 -176.549 
v 25.6252 0.100001 -176.549 
v 25.6018 2 -176.596 
v 25.6018 0.100001 -176.596 
v 25.5769 2 -176.627 
v 25.5769 0.100001 -176.627 

vn 0 -1 0 
vn 0 -1 0 
vn 0 -1 0 
vn 0 -1 0 
vn 0 -1 0 
vn 0 -1 0 
vn 0 -1 0 
vn 0 -1 0 
vn 0 -1 0 
vn 0 -1 0 
vn 0 -1 0 
vn 0 -1 0 
vn 0 -1 0 
vn 0 -1 0 
vn 0 -1 0 
vn 0 -1 0 
vn 0 -1 0 
vn 0 -1 0 
vn 0 -1 0 
vn 0 -1 0 
vn 0 -1 0 
vn 0 -1 0 
vn 0 -1 0 
vn 0 -1 0 
vn 0 -1 0 
vn 0 -1 0 
vn 0 -1 0 
vn 0 -1 0 
vn 0 -1 0 
vn -0.708661 0 0.708661 
vn -0.708661 0 0.708661 
vn -0.551181 0 0.834646 
vn -0.551181 0 0.834646 
vn -0.314961 0 0.944882 
vn -0.314961 0 0.944882 
vn 0 0 1 
vn 0 0 1 
vn 0.314961 0 0.944882 
vn 0.314961 0 0.944882 
vn 0.551181 0 0.834646 
vn 0.551181 0 0.834646 
vn 0.708661 0 0.708661 
vn 0.708661 0 0.708661 
vn -0.708661 0 0.708661 
vn -0.708661 0 0.708661 
vn -0.834646 0 0.551181 
vn -0.834646 0 0.551181 
vn -0.944882 0 0.314961 
vn -0.944882 0 0.314961 
vn -1 0 0 
vn -1 0 0 
vn -0.944882 0 -0.314961 
vn -0.944882 0 -0.314961 
vn -0.834646 0 -0.551181 
vn -0.834646 0 -0.551181 
vn -0.708661 0 -0.708661 
vn -0.708661 0 -0.708661 
vn 0 1 0 
vn 0 1 0 
vn 0 1 0 
vn 0 1 0 
vn 0 1 0 
vn 0 1 0 
vn 0 1 0 
vn 0 1 0 
vn 0 1 0 
vn 0 1 0 
vn 0 1 0 
vn 0 1 0 
vn 0 1 0 
vn 0 1 0 
vn 0 1 0 
vn 0 1 0 
vn 0 1 0 
vn 0 1 0 
vn 0 1 0 
vn 0 1 0 
vn 0 1 0 
vn 0 1 0 
vn 0 1 0 
vn 0 1 0 
vn 0 1 0 
vn 0 1 0 
vn 0 1 0 
vn 0 1 0 
vn 0 1 0 
vn 0.708661 0 -0.708661 
vn 0.708661 0 -0.708661 
vn 0.551181 0 -0.834646 
vn 0.551181 0 -0.834646 
vn 0.314961 0 -0.944882 
vn 0.314961 0 -0.944882 
vn 0 0 -1 
vn 0 0 -1 
vn -0.314961 0 -0.944882 
vn -0.314961 0 -0.944882 
vn -0.551181 0 -0.834646 
vn -0.551181 0 -0.834646 
vn -0.708661 0 -0.708661 
vn -0.708661 0 -0.708661 
vn 0.708661 0 0.708661 
vn 0.708661 0 0.708661 
vn 0.834646 0 0.551181 
vn 0.834646 0 0.551181 
vn 0.944882 0 0.314961 
vn 0.944882 0 0.314961 
vn 1 0 0 
vn 1 0 0 
vn 0.944882 0 -0.314961 
vn 0.944882 0 -0.314961 
vn 0.834646 0 -0.551181 
vn 0.834646 0 -0.551181 
vn 0.708661 0 -0.708661 
vn 0.708661 0 -0.708661 

vt 4.025 -1.025 
vt 4.04268 -1.00732 
vt 4.0458 -1.01113 
vt 4.04872 -1.01709 
vt 4.05 -1.025 
vt 4.04872 -1.03291 
vt 4.0458 -1.03887 
vt 4.04268 -1.04268 
vt 4.04268 -1.04268 
vt 4.03887 -1.0458 
vt 4.03291 -1.04872 
vt 4.025 -1.05 
vt 4.01709 -1.04872 
vt 4.01113 -1.0458 
vt 4.00732 -1.04268 
vt 4.00732 -1.04268 
vt 4.0042 -1.03887 
vt 4.00128 -1.03291 
vt 4 -1.025 
vt 4.00128 -1.01709 
vt 4.0042 -1.01113 
vt 4.00732 -1.00732 
vt 4.00732 -1.00732 
vt 4.01113 -1.0042 
vt 4.01709 -1.00128 
vt 4.025 -1 
vt 4.03291 -1.00128 
vt 4.03887 -1.0042 
vt 4.04268 -1.00732 
vt 4.2375 -1 
vt 4 -1 
vt 4.2375 -1.00833 
vt 4 -1.00833 
vt 4.2375 -1.01667 
vt 4 -1.01667 
vt 4.2375 -1.025 
vt 4 -1.025 
vt 4.2375 -1.03333 
vt 4 -1.03333 
vt 4.2375 -1.04167 
vt 4 -1.04167 
vt 4.2375 -1.05 
vt 4 -1.05 
vt 4.2375 -1 
vt 4 -1 
vt 4.2375 -1.00833 
vt 4 -1.00833 
vt 4.2375 -1.01667 
vt 4 -1.01667 
vt 4.2375 -1.025 
vt 4 -1.025 
vt 4.2375 -1.03333 
vt 4 -1.03333 
vt 4.2375 -1.04167 
vt 4 -1.04167 
vt 4.2375 -1.05 
vt 4 -1.05 
vt 4.025 -1.025 
vt 4.04268 -1.00732 
vt 4.0458 -1.01113 
vt 4.04872 -1.01709 
vt 4.05 -1.025 
vt 4.04872 -1.03291 
vt 4.0458 -1.03887 
vt 4.04268 -1.04268 
vt 4.04268 -1.04268 
vt 4.03887 -1.0458 
vt 4.03291 -1.04872 
vt 4.025 -1.05 
vt 4.01709 -1.04872 
vt 4.01113 -1.0458 
vt 4.00732 -1.04268 
vt 4.00732 -1.04268 
vt 4.0042 -1.03887 
vt 4.00128 -1.03291 
vt 4 -1.025 
vt 4.00128 -1.01709 
vt 4.0042 -1.01113 
vt 4.00732 -1.00732 
vt 4.00732 -1.00732 
vt 4.01113 -1.0042 
vt 4.01709 -1.00128 
vt 4.025 -1 
vt 4.03291 -1.00128 
vt 4.03887 -1.0042 
vt 4.04268 -1.00732 
vt 4.2375 -1 
vt 4 -1 
vt 4.2375 -1.00833 
vt 4 -1.00833 
vt 4.2375 -1.01667 
vt 4 -1.01667 
vt 4.2375 -1.025 
vt 4 -1.025 
vt 4.2375 -1.03333 
vt 4 -1.03333 
vt 4.2375 -1.04167 
vt 4 -1.04167 
vt 4.2375 -1.05 
vt 4 -1.05 
vt 4.2375 -1 
vt 4 -1 
vt 4.2375 -1.00833 
vt 4 -1.00833 
vt 4.2375 -1.01667 
vt 4 -1.01667 
vt 4.2375 -1.025 
vt 4 -1.025 
vt 4.2375 -1.03333 
vt 4 -1.03333 
vt 4.2375 -1.04167 
vt 4 -1.04167 
vt 4.2375 -1.05 
vt 4 -1.05 

usemtl Part2Mtl

f 25/25/25 27/27/27 26/26/26 
f 25/25/25 28/28/28 27/27/27 
f 25/25/25 29/29/29 28/28/28 
f 25/25/25 30/30/30 29/29/29 
f 25/25/25 31/31/31 30/30/30 
f 25/25/25 32/32/32 31/31/31 
f 25/25/25 34/34/34 33/33/33 
f 25/25/25 35/35/35 34/34/34 
f 25/25/25 36/36/36 35/35/35 
f 25/25/25 37/37/37 36/36/36 
f 25/25/25 38/38/38 37/37/37 
f 25/25/25 39/39/39 38/38/38 
f 25/25/25 41/41/41 40/40/40 
f 25/25/25 42/42/42 41/41/41 
f 25/25/25 43/43/43 42/42/42 
f 25/25/25 44/44/44 43/43/43 
f 25/25/25 45/45/45 44/44/44 
f 25/25/25 46/46/46 45/45/45 
f 25/25/25 48/48/48 47/47/47 
f 25/25/25 49/49/49 48/48/48 
f 25/25/25 50/50/50 49/49/49 
f 25/25/25 51/51/51 50/50/50 
f 25/25/25 52/52/52 51/51/51 
f 25/25/25 53/53/53 52/52/52 
f 54/54/54 55/55/55 56/56/56 
f 56/56/56 55/55/55 57/57/57 
f 56/56/56 57/57/57 58/58/58 
f 58/58/58 57/57/57 59/59/59 
f 58/58/58 59/59/59 60/60/60 
f 60/60/60 59/59/59 61/61/61 
f 60/60/60 61/61/61 62/62/62 
f 62/62/62 61/61/61 63/63/63 
f 62/62/62 63/63/63 64/64/64 
f 64/64/64 63/63/63 65/65/65 
f 64/64/64 65/65/65 66/66/66 
f 66/66/66 65/65/65 67/67/67 
f 68/68/68 69/69/69 70/70/70 
f 70/70/70 69/69/69 71/71/71 
f 70/70/70 71/71/71 72/72/72 
f 72/72/72 71/71/71 73/73/73 
f 72/72/72 73/73/73 74/74/74 
f 74/74/74 73/73/73 75/75/75 
f 74/74/74 75/75/75 76/76/76 
f 76/76/76 75/75/75 77/77/77 
f 76/76/76 77/77/77 78/78/78 
f 78/78/78 77/77/77 79/79/79 
f 78/78/78 79/79/79 80/80/80 
f 80/80/80 79/79/79 81/81/81 
f 82/82/82 84/84/84 83/83/83 
f 82/82/82 85/85/85 84/84/84 
f 82/82/82 86/86/86 85/85/85 
f 82/82/82 87/87/87 86/86/86 
f 82/82/82 88/88/88 87/87/87 
f 82/82/82 89/89/89 88/88/88 
f 82/82/82 91/91/91 90/90/90 
f 82/82/82 92/92/92 91/91/91 
f 82/82/82 93/93/93 92/92/92 
f 82/82/82 94/94/94 93/93/93 
f 82/82/82 95/95/95 94/94/94 
f 82/82/82 96/96/96 95/95/95 
f 82/82/82 98/98/98 97/97/97 
f 82/82/82 99/99/99 98/98/98 
f 82/82/82 100/100/100 99/99/99 
f 82/82/82 101/101/101 100/100/100 
f 82/82/82 102/102/102 101/101/101 
f 82/82/82 103/103/103 102/102/102 
f 82/82/82 105/105/105 104/104/104 
f 82/82/82 106/106/106 105/105/105 
f 82/82/82 107/107/107 106/106/106 
f 82/82/82 108/108/108 107/107/107 
f 82/82/82 109/109/109 108/108/108 
f 82/82/82 110/110/110 109/109/109 
f 111/111/111 112/112/112 113/113/113 
f 113/113/113 112/112/112 114/114/114 
f 113/113/113 114/114/114 115/115/115 
f 115/115/115 114/114/114 116/116/116 
f 115/115/115 116/116/116 117/117/117 
f 117/117/117 116/116/116 118/118/118 
f 117/117/117 118/118/118 119/119/119 
f 119/119/119 118/118/118 120/120/120 
f 119/119/119 120/120/120 121/121/121 
f 121/121/121 120/120/120 122/122/122 
f 121/121/121 122/122/122 123/123/123 
f 123/123/123 122/122/122 124/124/124 
f 125/125/125 126/126/126 127/127/127 
f 127/127/127 126/126/126 128/128/128 
f 127/127/127 128/128/128 129/129/129 
f 129/129/129 128/128/128 130/130/130 
f 129/129/129 130/130/130 131/131/131 
f 131/131/131 130/130/130 132/132/132 
f 131/131/131 132/132/132 133/133/133 
f 133/133/133 132/132/132 134/134/134 
f 133/133/133 134/134/134 135/135/135 
f 135/135/135 134/134/134 136/136/136 
f 135/135/135 136/136/136 137/137/137 
f 137/137/137 136/136/136 138/138/138 

g Part3

v 25.9 2.1 -177.5 
v 25.9 2.1 -175.5 
v 25.9 1.9 -177.5 
v 25.9 1.9 -175.5 
v 25.1 2.1 -175.5 
v 25.9 2.1 -175.5 
v 25.1 2.1 -177.5 
v 25.9 2.1 -177.5 
v 25.9 2.1 -175.5 
v 25.1 2.1 -175.5 
v 25.9 1.9 -175.5 
v 25.1 1.9 -175.5 
v 25.1 2.1 -175.5 
v 25.1 2.1 -177.5 
v 25.1 1.9 -175.5 
v 25.1 1.9 -177.5 
v 25.1 1.9 -177.5 
v 25.9 1.9 -177.5 
v 25.1 1.9 -175.5 
v 25.9 1.9 -175.5 
v 25.1 2.1 -177.5 
v 25.9 2.1 -177.5 
v 25.1 1.9 -177.5 
v 25.9 1.9 -177.5 

vn 1 0 0 
vn 1 0 0 
vn 1 0 0 
vn 1 0 0 
vn 0 1 0 
vn 0 1 0 
vn 0 1 0 
vn 0 1 0 
vn 0 0 1 
vn 0 0 1 
vn 0 0 1 
vn 0 0 1 
vn -1 0 0 
vn -1 0 0 
vn -1 0 0 
vn -1 0 0 
vn 0 -1 0 
vn 0 -1 0 
vn 0 -1 0 
vn 0 -1 0 
vn 0 0 -1 
vn 0 0 -1 
vn 0 0 -1 
vn 0 0 -1 

vt 0.25 -3.75 
vt 0 -3.75 
vt 0.25 -3.775 
vt 0 -3.775 
vt 0.1 -3.75 
vt 0 -3.75 
vt 0.1 -4 
vt 0 -4 
vt 0.1 -3.75 
vt 0 -3.75 
vt 0.1 -3.775 
vt 0 -3.775 
vt 0.25 -3.75 
vt 0 -3.75 
vt 0.25 -3.775 
vt 0 -3.775 
vt 0.1 -3.75 
vt 0 -3.75 
vt 0.1 -4 
vt 0 -4 
vt 0.1 -3.75 
vt 0 -3.75 
vt 0.1 -3.775 
vt 0 -3.775 

usemtl Part3Mtl

f 139/139/139 140/140/140 141/141/141 
f 141/141/141 140/140/140 142/142/142 
f 143/143/143 144/144/144 145/145/145 
f 145/145/145 144/144/144 146/146/146 
f 147/147/147 148/148/148 149/149/149 
f 149/149/149 148/148/148 150/150/150 
f 151/151/151 152/152/152 153/153/153 
f 153/153/153 152/152/152 154/154/154 
f 155/155/155 156/156/156 157/157/157 
f 157/157/157 156/156/156 158/158/158 
f 159/159/159 160/160/160 161/161/161 
f 161/161/161 160/160/160 162/162/162 

g Part4

v 25.9 2.3 -175.7 
v 25.9 2.3 -175.5 
v 25.9 2.1 -175.7 
v 25.9 2.1 -175.5 
v 25.1 2.3 -175.5 
v 25.9 2.3 -175.5 
v 25.1 2.3 -175.7 
v 25.9 2.3 -175.7 
v 25.9 2.3 -175.5 
v 25.1 2.3 -175.5 
v 25.9 2.1 -175.5 
v 25.1 2.1 -175.5 
v 25.1 2.3 -175.5 
v 25.1 2.3 -175.7 
v 25.1 2.1 -175.5 
v 25.1 2.1 -175.7 
v 25.1 2.1 -175.7 
v 25.9 2.1 -175.7 
v 25.1 2.1 -175.5 
v 25.9 2.1 -175.5 
v 25.1 2.3 -175.7 
v 25.9 2.3 -175.7 
v 25.1 2.1 -175.7 
v 25.9 2.1 -175.7 

vn 1 0 0 
vn 1 0 0 
vn 1 0 0 
vn 1 0 0 
vn 0 1 0 
vn 0 1 0 
vn 0 1 0 
vn 0 1 0 
vn 0 0 1 
vn 0 0 1 
vn 0 0 1 
vn 0 0 1 
vn -1 0 0 
vn -1 0 0 
vn -1 0 0 
vn -1 0 0 
vn 0 -1 0 
vn 0 -1 0 
vn 0 -1 0 
vn 0 -1 0 
vn 0 0 -1 
vn 0 0 -1 
vn 0 0 -1 
vn 0 0 -1 

vt 3.275 -1.75 
vt 3.25 -1.75 
vt 3.275 -1.775 
vt 3.25 -1.775 
vt 3.35 -1.75 
vt 3.25 -1.75 
vt 3.35 -1.775 
vt 3.25 -1.775 
vt 3.35 -1.75 
vt 3.25 -1.75 
vt 3.35 -1.775 
vt 3.25 -1.775 
vt 3.275 -1.75 
vt 3.25 -1.75 
vt 3.275 -1.775 
vt 3.25 -1.775 
vt 3.35 -1.75 
vt 3.25 -1.75 
vt 3.35 -1.775 
vt 3.25 -1.775 
vt 3.35 -1.75 
vt 3.25 -1.75 
vt 3.35 -1.775 
vt 3.25 -1.775 

usemtl Part4Mtl

f 163/163/163 164/164/164 165/165/165 
f 165/165/165 164/164/164 166/166/166 
f 167/167/167 168/168/168 169/169/169 
f 169/169/169 168/168/168 170/170/170 
f 171/171/171 172/172/172 173/173/173 
f 173/173/173 172/172/172 174/174/174 
f 175/175/175 176/176/176 177/177/177 
f 177/177/177 176/176/176 178/178/178 
f 179/179/179 180/180/180 181/181/181 
f 181/181/181 180/180/180 182/182/182 
f 183/183/183 184/184/184 185/185/185 
f 185/185/185 184/184/184 186/186/186 

g Part5

v 25.9 2.3 -177.5 
v 25.9 2.3 -177.3 
v 25.9 2.1 -177.5 
v 25.9 2.1 -177.3 
v 25.1 2.3 -177.3 
v 25.9 2.3 -177.3 
v 25.1 2.3 -177.5 
v 25.9 2.3 -177.5 
v 25.9 2.3 -177.3 
v 25.1 2.3 -177.3 
v 25.9 2.1 -177.3 
v 25.1 2.1 -177.3 
v 25.1 2.3 -177.3 
v 25.1 2.3 -177.5 
v 25.1 2.1 -177.3 
v 25.1 2.1 -177.5 
v 25.1 2.1 -177.5 
v 25.9 2.1 -177.5 
v 25.1 2.1 -177.3 
v 25.9 2.1 -177.3 
v 25.1 2.3 -177.5 
v 25.9 2.3 -177.5 
v 25.1 2.1 -177.5 
v 25.9 2.1 -177.5 

vn 1 0 0 
vn 1 0 0 
vn 1 0 0 
vn 1 0 0 
vn 0 1 0 
vn 0 1 0 
vn 0 1 0 
vn 0 1 0 
vn 0 0 1 
vn 0 0 1 
vn 0 0 1 
vn 0 0 1 
vn -1 0 0 
vn -1 0 0 
vn -1 0 0 
vn -1 0 0 
vn 0 -1 0 
vn 0 -1 0 
vn 0 -1 0 
vn 0 -1 0 
vn 0 0 -1 
vn 0 0 -1 
vn 0 0 -1 
vn 0 0 -1 

vt 5.775 -0.5 
vt 5.75 -0.5 
vt 5.775 -0.525 
vt 5.75 -0.525 
vt 5.85 -0.5 
vt 5.75 -0.5 
vt 5.85 -0.525 
vt 5.75 -0.525 
vt 5.85 -0.5 
vt 5.75 -0.5 
vt 5.85 -0.525 
vt 5.75 -0.525 
vt 5.775 -0.5 
vt 5.75 -0.5 
vt 5.775 -0.525 
vt 5.75 -0.525 
vt 5.85 -0.5 
vt 5.75 -0.5 
vt 5.85 -0.525 
vt 5.75 -0.525 
vt 5.85 -0.5 
vt 5.75 -0.5 
vt 5.85 -0.525 
vt 5.75 -0.525 

usemtl Part4Mtl

f 187/187/187 188/188/188 189/189/189 
f 189/189/189 188/188/188 190/190/190 
f 191/191/191 192/192/192 193/193/193 
f 193/193/193 192/192/192 194/194/194 
f 195/195/195 196/196/196 197/197/197 
f 197/197/197 196/196/196 198/198/198 
f 199/199/199 200/200/200 201/201/201 
f 201/201/201 200/200/200 202/202/202 
f 203/203/203 204/204/204 205/205/205 
f 205/205/205 204/204/204 206/206/206 
f 207/207/207 208/208/208 209/209/209 
f 209/209/209 208/208/208 210/210/210 

g Part6

v 25.6 7.6 -176.9 
v 25.6 7.6 -176.1 
v 25.6 2.1 -176.9 
v 25.6 2.1 -176.1 
v 25.4 7.6 -176.1 
v 25.6 7.6 -176.1 
v 25.4 7.6 -176.9 
v 25.6 7.6 -176.9 
v 25.6 7.6 -176.1 
v 25.4 7.6 -176.1 
v 25.6 2.1 -176.1 
v 25.4 2.1 -176.1 
v 25.4 7.6 -176.1 
v 25.4 7.6 -176.9 
v 25.4 2.1 -176.1 
v 25.4 2.1 -176.9 
v 25.4 2.1 -176.9 
v 25.6 2.1 -176.9 
v 25.4 2.1 -176.1 
v 25.6 2.1 -176.1 
v 25.4 7.6 -176.9 
v 25.6 7.6 -176.9 
v 25.4 2.1 -176.9 
v 25.6 2.1 -176.9 

vn 1 0 0 
vn 1 0 0 
vn 1 0 0 
vn 1 0 0 
vn 0 1 0 
vn 0 1 0 
vn 0 1 0 
vn 0 1 0 
vn 0 0 1 
vn 0 0 1 
vn 0 0 1 
vn 0 0 1 
vn -1 0 0 
vn -1 0 0 
vn -1 0 0 
vn -1 0 0 
vn 0 -1 0 
vn 0 -1 0 
vn 0 -1 0 
vn 0 -1 0 
vn 0 0 -1 
vn 0 0 -1 
vn 0 0 -1 
vn 0 0 -1 

vt 2.1 -6.25 
vt 2 -6.25 
vt 2.1 -6.9375 
vt 2 -6.9375 
vt 2.025 -6.25 
vt 2 -6.25 
vt 2.025 -6.35 
vt 2 -6.35 
vt 2.025 -6.25 
vt 2 -6.25 
vt 2.025 -6.9375 
vt 2 -6.9375 
vt 2.1 -6.25 
vt 2 -6.25 
vt 2.1 -6.9375 
vt 2 -6.9375 
vt 2.025 -6.25 
vt 2 -6.25 
vt 2.025 -6.35 
vt 2 -6.35 
vt 2.025 -6.25 
vt 2 -6.25 
vt 2.025 -6.9375 
vt 2 -6.9375 

usemtl Part6Mtl

f 211/211/211 212/212/212 213/213/213 
f 213/213/213 212/212/212 214/214/214 
f 215/215/215 216/216/216 217/217/217 
f 217/217/217 216/216/216 218/218/218 
f 219/219/219 220/220/220 221/221/221 
f 221/221/221 220/220/220 222/222/222 
f 223/223/223 224/224/224 225/225/225 
f 225/225/225 224/224/224 226/226/226 
f 227/227/227 228/228/228 229/229/229 
f 229/229/229 228/228/228 230/230/230 
f 231/231/231 232/232/232 233/233/233 
f 233/233/233 232/232/232 234/234/234 

g Part7

v 25.7 7.6 -176.8 
v 25.7 7.6 -176.2 
v 25.7 2.1 -176.8 
v 25.7 2.1 -176.2 
v 25.3 7.6 -176.2 
v 25.7 7.6 -176.2 
v 25.3 7.6 -176.8 
v 25.7 7.6 -176.8 
v 25.7 7.6 -176.2 
v 25.3 7.6 -176.2 
v 25.7 2.1 -176.2 
v 25.3 2.1 -176.2 
v 25.3 7.6 -176.2 
v 25.3 7.6 -176.8 
v 25.3 2.1 -176.2 
v 25.3 2.1 -176.8 
v 25.3 2.1 -176.8 
v 25.7 2.1 -176.8 
v 25.3 2.1 -176.2 
v 25.7 2.1 -176.2 
v 25.3 7.6 -176.8 
v 25.7 7.6 -176.8 
v 25.3 2.1 -176.8 
v 25.7 2.1 -176.8 

vn 1 0 0 
vn 1 0 0 
vn 1 0 0 
vn 1 0 0 
vn 0 1 0 
vn 0 1 0 
vn 0 1 0 
vn 0 1 0 
vn 0 0 1 
vn 0 0 1 
vn 0 0 1 
vn 0 0 1 
vn -1 0 0 
vn -1 0 0 
vn -1 0 0 
vn -1 0 0 
vn 0 -1 0 
vn 0 -1 0 
vn 0 -1 0 
vn 0 -1 0 
vn 0 0 -1 
vn 0 0 -1 
vn 0 0 -1 
vn 0 0 -1 

vt 3.325 0.25 
vt 3.25 0.25 
vt 3.325 -0.4375 
vt 3.25 -0.4375 
vt 3.3 0.25 
vt 3.25 0.25 
vt 3.3 0.175 
vt 3.25 0.175 
vt 3.3 0.25 
vt 3.25 0.25 
vt 3.3 -0.4375 
vt 3.25 -0.4375 
vt 3.325 0.25 
vt 3.25 0.25 
vt 3.325 -0.4375 
vt 3.25 -0.4375 
vt 3.3 0.25 
vt 3.25 0.25 
vt 3.3 0.175 
vt 3.25 0.175 
vt 3.3 0.25 
vt 3.25 0.25 
vt 3.3 -0.4375 
vt 3.25 -0.4375 

usemtl Part7Mtl

f 235/235/235 236/236/236 237/237/237 
f 237/237/237 236/236/236 238/238/238 
f 239/239/239 240/240/240 241/241/241 
f 241/241/241 240/240/240 242/242/242 
f 243/243/243 244/244/244 245/245/245 
f 245/245/245 244/244/244 246/246/246 
f 247/247/247 248/248/248 249/249/249 
f 249/249/249 248/248/248 250/250/250 
f 251/251/251 252/252/252 253/253/253 
f 253/253/253 252/252/252 254/254/254 
f 255/255/255 256/256/256 257/257/257 
f 257/257/257 256/256/256 258/258/258 

g Part8

v 25.6 8 -176.5 
v 25.6 8 -176.5 
v 25.6 7.6 -176.9 
v 25.6 7.6 -176.5 
v 25.6 8 -176.5 
v 25.4 8 -176.5 
v 25.6 7.6 -176.5 
v 25.4 7.6 -176.5 
v 25.4 8 -176.5 
v 25.4 8 -176.5 
v 25.4 7.6 -176.5 
v 25.4 7.6 -176.9 
v 25.4 7.6 -176.9 
v 25.6 7.6 -176.9 
v 25.4 7.6 -176.5 
v 25.6 7.6 -176.5 
v 25.4 8 -176.5 
v 25.6 8 -176.5 
v 25.4 7.6 -176.9 
v 25.6 7.6 -176.9 

vn 1 0 0 
vn 1 0 0 
vn 1 0 0 
vn 1 0 0 
vn 0 0 1 
vn 0 0 1 
vn 0 0 1 
vn 0 0 1 
vn -1 0 0 
vn -1 0 0 
vn -1 0 0 
vn -1 0 0 
vn 0 -1 0 
vn 0 -1 0 
vn 0 -1 0 
vn 0 -1 0 
vn 0 0.708661 -0.708661 
vn 0 0.708661 -0.708661 
vn 0 0.708661 -0.708661 
vn 0 0.708661 -0.708661 

vt 0 -4.25 
vt 0 -4.25 
vt 0.05 -4.3 
vt 0 -4.3 
vt 0.025 -4.25 
vt 0 -4.25 
vt 0.025 -4.3 
vt 0 -4.3 
vt 0.05 -4.25 
vt 0.05 -4.25 
vt 0.05 -4.3 
vt 0 -4.3 
vt 0.025 -4.25 
vt 0 -4.25 
vt 0.025 -4.3 
vt 0 -4.3 
vt 0.025 -4.25 
vt 0 -4.25 
vt 0.025 -4.32071 
vt 0 -4.32071 

usemtl Part6Mtl

f 259/259/259 260/260/260 261/261/261 
f 261/261/261 260/260/260 262/262/262 
f 263/263/263 264/264/264 265/265/265 
f 265/265/265 264/264/264 266/266/266 
f 267/267/267 268/268/268 269/269/269 
f 269/269/269 268/268/268 270/270/270 
f 271/271/271 272/272/272 273/273/273 
f 273/273/273 272/272/272 274/274/274 
f 275/275/275 276/276/276 277/277/277 
f 277/277/277 276/276/276 278/278/278 

g Part9

v 25.7 7.9 -176.5 
v 25.7 7.9 -176.5 
v 25.7 7.6 -176.8 
v 25.7 7.6 -176.5 
v 25.7 7.9 -176.5 
v 25.6 7.9 -176.5 
v 25.7 7.6 -176.5 
v 25.6 7.6 -176.5 
v 25.6 7.9 -176.5 
v 25.6 7.9 -176.5 
v 25.6 7.6 -176.5 
v 25.6 7.6 -176.8 
v 25.6 7.6 -176.8 
v 25.7 7.6 -176.8 
v 25.6 7.6 -176.5 
v 25.7 7.6 -176.5 
v 25.6 7.9 -176.5 
v 25.7 7.9 -176.5 
v 25.6 7.6 -176.8 
v 25.7 7.6 -176.8 

vn 1 0 0 
vn 1 0 0 
vn 1 0 0 
vn 1 0 0 
vn 0 0 1 
vn 0 0 1 
vn 0 0 1 
vn 0 0 1 
vn -1 0 0 
vn -1 0 0 
vn -1 0 0 
vn -1 0 0 
vn 0 -1 0 
vn 0 -1 0 
vn 0 -1 0 
vn 0 -1 0 
vn 0 0.708661 -0.708661 
vn 0 0.708661 -0.708661 
vn 0 0.708661 -0.708661 
vn 0 0.708661 -0.708661 

vt 2.5 -0.5 
vt 2.5 -0.5 
vt 2.5375 -0.5375 
vt 2.5 -0.5375 
vt 2.5125 -0.5 
vt 2.5 -0.5 
vt 2.5125 -0.5375 
vt 2.5 -0.5375 
vt 2.5375 -0.5 
vt 2.5375 -0.5 
vt 2.5375 -0.5375 
vt 2.5 -0.5375 
vt 2.5125 -0.5 
vt 2.5 -0.5 
vt 2.5125 -0.5375 
vt 2.5 -0.5375 
vt 2.5125 -0.5 
vt 2.5 -0.5 
vt 2.5125 -0.553033 
vt 2.5 -0.553033 

usemtl Part7Mtl

f 279/279/279 280/280/280 281/281/281 
f 281/281/281 280/280/280 282/282/282 
f 283/283/283 284/284/284 285/285/285 
f 285/285/285 284/284/284 286/286/286 
f 287/287/287 288/288/288 289/289/289 
f 289/289/289 288/288/288 290/290/290 
f 291/291/291 292/292/292 293/293/293 
f 293/293/293 292/292/292 294/294/294 
f 295/295/295 296/296/296 297/297/297 
f 297/297/297 296/296/296 298/298/298 

g Part10

v 25.4 7.9 -176.5 
v 25.4 7.9 -176.5 
v 25.4 7.6 -176.8 
v 25.4 7.6 -176.5 
v 25.4 7.9 -176.5 
v 25.3 7.9 -176.5 
v 25.4 7.6 -176.5 
v 25.3 7.6 -176.5 
v 25.3 7.9 -176.5 
v 25.3 7.9 -176.5 
v 25.3 7.6 -176.5 
v 25.3 7.6 -176.8 
v 25.3 7.6 -176.8 
v 25.4 7.6 -176.8 
v 25.3 7.6 -176.5 
v 25.4 7.6 -176.5 
v 25.3 7.9 -176.5 
v 25.4 7.9 -176.5 
v 25.3 7.6 -176.8 
v 25.4 7.6 -176.8 

vn 1 0 0 
vn 1 0 0 
vn 1 0 0 
vn 1 0 0 
vn 0 0 1 
vn 0 0 1 
vn 0 0 1 
vn 0 0 1 
vn -1 0 0 
vn -1 0 0 
vn -1 0 0 
vn -1 0 0 
vn 0 -1 0 
vn 0 -1 0 
vn 0 -1 0 
vn 0 -1 0 
vn 0 0.708661 -0.708661 
vn 0 0.708661 -0.708661 
vn 0 0.708661 -0.708661 
vn 0 0.708661 -0.708661 

vt 5.5 -5.75 
vt 5.5 -5.75 
vt 5.5375 -5.7875 
vt 5.5 -5.7875 
vt 5.5125 -5.75 
vt 5.5 -5.75 
vt 5.5125 -5.7875 
vt 5.5 -5.7875 
vt 5.5375 -5.75 
vt 5.5375 -5.75 
vt 5.5375 -5.7875 
vt 5.5 -5.7875 
vt 5.5125 -5.75 
vt 5.5 -5.75 
vt 5.5125 -5.7875 
vt 5.5 -5.7875 
vt 5.5125 -5.75 
vt 5.5 -5.75 
vt 5.5125 -5.80303 
vt 5.5 -5.80303 

usemtl Part7Mtl

f 299/299/299 300/300/300 301/301/301 
f 301/301/301 300/300/300 302/302/302 
f 303/303/303 304/304/304 305/305/305 
f 305/305/305 304/304/304 306/306/306 
f 307/307/307 308/308/308 309/309/309 
f 309/309/309 308/308/308 310/310/310 
f 311/311/311 312/312/312 313/313/313 
f 313/313/313 312/312/312 314/314/314 
f 315/315/315 316/316/316 317/317/317 
f 317/317/317 316/316/316 318/318/318 

g Part11

v 25.4 8 -176.5 
v 25.4 8 -176.5 
v 25.4 7.6 -176.1 
v 25.4 7.6 -176.5 
v 25.4 8 -176.5 
v 25.6 8 -176.5 
v 25.4 7.6 -176.5 
v 25.6 7.6 -176.5 
v 25.6 8 -176.5 
v 25.6 8 -176.5 
v 25.6 7.6 -176.5 
v 25.6 7.6 -176.1 
v 25.6 7.6 -176.1 
v 25.4 7.6 -176.1 
v 25.6 7.6 -176.5 
v 25.4 7.6 -176.5 
v 25.6 8 -176.5 
v 25.4 8 -176.5 
v 25.6 7.6 -176.1 
v 25.4 7.6 -176.1 

vn -1 0 0 
vn -1 0 0 
vn -1 0 0 
vn -1 0 0 
vn 0 0 -1 
vn 0 0 -1 
vn 0 0 -1 
vn 0 0 -1 
vn 1 0 0 
vn 1 0 0 
vn 1 0 0 
vn 1 0 0 
vn 0 -1 0 
vn 0 -1 0 
vn 0 -1 0 
vn 0 -1 0 
vn 0 0.708661 0.708661 
vn 0 0.708661 0.708661 
vn 0 0.708661 0.708661 
vn 0 0.708661 0.708661 

vt 5.5 -2.75 
vt 5.5 -2.75 
vt 5.55 -2.8 
vt 5.5 -2.8 
vt 5.525 -2.75 
vt 5.5 -2.75 
vt 5.525 -2.8 
vt 5.5 -2.8 
vt 5.55 -2.75 
vt 5.55 -2.75 
vt 5.55 -2.8 
vt 5.5 -2.8 
vt 5.525 -2.75 
vt 5.5 -2.75 
vt 5.525 -2.8 
vt 5.5 -2.8 
vt 5.525 -2.75 
vt 5.5 -2.75 
vt 5.525 -2.82071 
vt 5.5 -2.82071 

usemtl Part6Mtl

f 319/319/319 320/320/320 321/321/321 
f 321/321/321 320/320/320 322/322/322 
f 323/323/323 324/324/324 325/325/325 
f 325/325/325 324/324/324 326/326/326 
f 327/327/327 328/328/328 329/329/329 
f 329/329/329 328/328/328 330/330/330 
f 331/331/331 332/332/332 333/333/333 
f 333/333/333 332/332/332 334/334/334 
f 335/335/335 336/336/336 337/337/337 
f 337/337/337 336/336/336 338/338/338 

g Part12

v 25.6 7.9 -176.5 
v 25.6 7.9 -176.5 
v 25.6 7.6 -176.2 
v 25.6 7.6 -176.5 
v 25.6 7.9 -176.5 
v 25.7 7.9 -176.5 
v 25.6 7.6 -176.5 
v 25.7 7.6 -176.5 
v 25.7 7.9 -176.5 
v 25.7 7.9 -176.5 
v 25.7 7.6 -176.5 
v 25.7 7.6 -176.2 
v 25.7 7.6 -176.2 
v 25.6 7.6 -176.2 
v 25.7 7.6 -176.5 
v 25.6 7.6 -176.5 
v 25.7 7.9 -176.5 
v 25.6 7.9 -176.5 
v 25.7 7.6 -176.2 
v 25.6 7.6 -176.2 

vn -1 0 0 
vn -1 0 0 
vn -1 0 0 
vn -1 0 0 
vn 0 0 -1 
vn 0 0 -1 
vn 0 0 -1 
vn 0 0 -1 
vn 1 0 0 
vn 1 0 0 
vn 1 0 0 
vn 1 0 0 
vn 0 -1 0 
vn 0 -1 0 
vn 0 -1 0 
vn 0 -1 0 
vn 0 0.708661 0.708661 
vn 0 0.708661 0.708661 
vn 0 0.708661 0.708661 
vn 0 0.708661 0.708661 

vt 5.25 -3 
vt 5.25 -3 
vt 5.2875 -3.0375 
vt 5.25 -3.0375 
vt 5.2625 -3 
vt 5.25 -3 
vt 5.2625 -3.0375 
vt 5.25 -3.0375 
vt 5.2875 -3 
vt 5.2875 -3 
vt 5.2875 -3.0375 
vt 5.25 -3.0375 
vt 5.2625 -3 
vt 5.25 -3 
vt 5.2625 -3.0375 
vt 5.25 -3.0375 
vt 5.2625 -3 
vt 5.25 -3 
vt 5.2625 -3.05303 
vt 5.25 -3.05303 

usemtl Part7Mtl

f 339/339/339 340/340/340 341/341/341 
f 341/341/341 340/340/340 342/342/342 
f 343/343/343 344/344/344 345/345/345 
f 345/345/345 344/344/344 346/346/346 
f 347/347/347 348/348/348 349/349/349 
f 349/349/349 348/348/348 350/350/350 
f 351/351/351 352/352/352 353/353/353 
f 353/353/353 352/352/352 354/354/354 
f 355/355/355 356/356/356 357/357/357 
f 357/357/357 356/356/356 358/358/358 

g Part13

v 25.3 7.9 -176.5 
v 25.3 7.9 -176.5 
v 25.3 7.6 -176.2 
v 25.3 7.6 -176.5 
v 25.3 7.9 -176.5 
v 25.4 7.9 -176.5 
v 25.3 7.6 -176.5 
v 25.4 7.6 -176.5 
v 25.4 7.9 -176.5 
v 25.4 7.9 -176.5 
v 25.4 7.6 -176.5 
v 25.4 7.6 -176.2 
v 25.4 7.6 -176.2 
v 25.3 7.6 -176.2 
v 25.4 7.6 -176.5 
v 25.3 7.6 -176.5 
v 25.4 7.9 -176.5 
v 25.3 7.9 -176.5 
v 25.4 7.6 -176.2 
v 25.3 7.6 -176.2 

vn -1 0 0 
vn -1 0 0 
vn -1 0 0 
vn -1 0 0 
vn 0 0 -1 
vn 0 0 -1 
vn 0 0 -1 
vn 0 0 -1 
vn 1 0 0 
vn 1 0 0 
vn 1 0 0 
vn 1 0 0 
vn 0 -1 0 
vn 0 -1 0 
vn 0 -1 0 
vn 0 -1 0 
vn 0 0.708661 0.708661 
vn 0 0.708661 0.708661 
vn 0 0.708661 0.708661 
vn 0 0.708661 0.708661 

vt 3 -2 
vt 3 -2 
vt 3.0375 -2.0375 
vt 3 -2.0375 
vt 3.0125 -2 
vt 3 -2 
vt 3.0125 -2.0375 
vt 3 -2.0375 
vt 3.0375 -2 
vt 3.0375 -2 
vt 3.0375 -2.0375 
vt 3 -2.0375 
vt 3.0125 -2 
vt 3 -2 
vt 3.0125 -2.0375 
vt 3 -2.0375 
vt 3.0125 -2 
vt 3 -2 
vt 3.0125 -2.05303 
vt 3 -2.05303 

usemtl Part7Mtl

f 359/359/359 360/360/360 361/361/361 
f 361/361/361 360/360/360 362/362/362 
f 363/363/363 364/364/364 365/365/365 
f 365/365/365 364/364/364 366/366/366 
f 367/367/367 368/368/368 369/369/369 
f 369/369/369 368/368/368 370/370/370 
f 371/371/371 372/372/372 373/373/373 
f 373/373/373 372/372/372 374/374/374 
f 375/375/375 376/376/376 377/377/377 
f 377/377/377 376/376/376 378/378/378 

